<svg xmlns="http://www.w3.org/2000/svg" width="187.626" height="183.609" viewBox="0 0 187.626 183.609">
  <g id="Group_328" data-name="Group 328" transform="translate(-1291.374 -1431.5)">
    <path id="Path_1598" data-name="Path 1598" d="M89.539,107.823l13.048-13.05A6.929,6.929,0,0,0,104.4,88.2L135.852,56.75a6.944,6.944,0,0,0,0-9.808l-33.68-33.679h23.09a2.563,2.563,0,1,0,0-5.127H97.045L90.939,2.029a6.944,6.944,0,0,0-9.808,0L49.686,33.473a6.992,6.992,0,0,0-1.676-.211,6.891,6.891,0,0,0-4.9,2.031L29.5,48.9a6.942,6.942,0,0,0,0,9.807L47.543,76.741A144.178,144.178,0,0,1,19.889,97.656a43.347,43.347,0,0,0-8.605,6.722,38.476,38.476,0,0,0-9.9,15.795c-1.716,5.893-.913,10.888,2.262,14.063a11.494,11.494,0,0,0,8.381,3.154c4.913,0,10.788-2.223,16.547-6.521a2.563,2.563,0,1,0-3.067-4.108c-7.329,5.469-15,7.088-18.235,3.851-1.765-1.766-2.116-5.047-.964-9A33.3,33.3,0,0,1,14.91,108a38.118,38.118,0,0,1,7.58-5.929A149.312,149.312,0,0,0,51.168,80.367l6.346,6.345a149.309,149.309,0,0,0-21.708,28.679,36.123,36.123,0,0,1-2.784,4.043,2.564,2.564,0,0,0,4.024,3.178,41.052,41.052,0,0,0,3.178-4.62A144.206,144.206,0,0,1,61.14,90.337l18.038,18.038a6.884,6.884,0,0,0,4.9,2.032c.111,0,.22-.011.33-.016C84.411,128.725,89.539,125.9,89.539,107.823ZM84.756,5.654a1.81,1.81,0,0,1,2.557,0l44.913,44.914a1.808,1.808,0,0,1,0,2.555l-30.74,30.74L89.494,71.873l5.194-5.194a2.564,2.564,0,1,0-3.625-3.626l-5.2,5.194L67.713,50.091l5.2-5.194a2.563,2.563,0,0,0-3.625-3.625l-5.2,5.194L61.325,43.7,81.769,23.26a2.564,2.564,0,1,0-3.625-3.626L57.7,40.078l-3.684-3.684ZM82.8,104.75,33.13,55.077a1.81,1.81,0,0,1,0-2.557l13.6-13.6a1.807,1.807,0,0,1,2.557,0L98.962,88.592a1.81,1.81,0,0,1,0,2.557l-13.6,13.6a1.807,1.807,0,0,1-2.557,0Zm0,0" transform="translate(1292.432 1432.999)" fill="#0177b7" stroke="#0177b7" stroke-width="3"/>
    <path id="ic_sync_24px" d="M46.585,16.969V1L25.292,22.292,46.585,43.585V27.616A31.964,31.964,0,0,1,78.524,59.554a31.249,31.249,0,0,1-3.726,14.9l7.772,7.772A42.51,42.51,0,0,0,46.585,16.969Zm0,74.524A31.964,31.964,0,0,1,14.646,59.554a31.249,31.249,0,0,1,3.726-14.9L10.6,36.878a42.51,42.51,0,0,0,35.984,65.261v15.969L67.877,96.816,46.585,75.524Z" transform="translate(1389.83 1497)" fill="#0177b7"/>
  </g>
</svg>
