<svg xmlns="http://www.w3.org/2000/svg" width="109.597" height="113" viewBox="0 0 109.597 113">
  <g id="Group_361" data-name="Group 361" transform="translate(-874 -2125)">
    <g id="Ellipse_100" data-name="Ellipse 100" transform="translate(950.922 2164.482)" fill="none" stroke="#fff" stroke-width="3">
      <circle cx="8.509" cy="8.509" r="8.509" stroke="none"/>
      <circle cx="8.509" cy="8.509" r="7.009" fill="none"/>
    </g>
    <path id="Path_1656" data-name="Path 1656" d="M16042.54,12.09c30.272-18.427,42.118,0,42.118,0l21.06-23.692,14.477,23.692Z" transform="translate(-15152.517 2201.541)" fill="none" stroke="#fff" stroke-width="3"/>
    <g id="Group_360" data-name="Group 360" transform="translate(901.569 2177.416)">
      <line id="Line_10" data-name="Line 10" y2="12.819" transform="translate(7.812 8.513)" fill="none" stroke="#fff" stroke-width="3"/>
      <line id="Line_11" data-name="Line 11" x2="15.423" transform="translate(0 14.922)" fill="none" stroke="#fff" stroke-width="3"/>
      <g id="Group_359" data-name="Group 359" transform="translate(4.407 21.532)">
        <line id="Line_12" data-name="Line 12" x1="3.405" y2="5.008" transform="translate(0 0)" fill="none" stroke="#fff" stroke-width="3"/>
        <line id="Line_13" data-name="Line 13" x1="3.205" y1="5.008" transform="translate(3.405 0)" fill="none" stroke="#fff" stroke-width="3"/>
      </g>
      <g id="Ellipse_101" data-name="Ellipse 101" transform="translate(3.505)" fill="none" stroke="#fff" stroke-width="3">
        <circle cx="4.306" cy="4.306" r="4.306" stroke="none"/>
        <circle cx="4.306" cy="4.306" r="2.806" fill="none"/>
      </g>
    </g>
    <g id="Rectangle_211" data-name="Rectangle 211" transform="translate(874 2125)" fill="none" stroke="#fff" stroke-width="3">
      <rect width="109.596" height="113" rx="34" stroke="none"/>
      <rect x="1.5" y="1.5" width="106.596" height="110" rx="32.5" fill="none"/>
    </g>
  </g>
</svg>
